#!OML:ASF I:\Actors\actors\Patient Classification 1\Patient 1\Session 1\Subject1.ASF
:FULLY-SPECIFIED
:DEGREES
1750
root -0.0233131 17.453 10.1232 14.1983 2.62241 -7.32151
lowerback -7.31653 1.00985 5.64181
upperback -13.1127 1.37765 0.790045
thorax -9.81694 0.200777 -2.31001
lowerneck -6.31409 -3.87754 0.945211
upperneck 13.0104 -5.57464 1.45488
head 4.96213 -2.60231 -0.0458452
rclavicle 5.96354e-016 1.66979e-014
rhumerus -60.878 -30.1201 -51.9215
rradius 24.2808
rwrist 32.023
rhand 11.6236 322.459
rfingers 7.12502
rthumb 36.6646 -423.691
lclavicle 5.96354e-016 1.66979e-014
lhumerus -51.8657 11.9734 74.5698
lradius 18.9254
lwrist -30.7428
lhand -15.0239 -11.114
lfingers 7.12502
lthumb 11.1417 18.5702
rfemur -0.817074 26.4369 25.4659
rtibia 0.125064
rfoot -17.6505 -32.1906
rtoes 8.22441
lfemur 9.62464 -56.3444 -17.0837
ltibia -4.88052
lfoot -37.2733 60.9956
ltoes 16.7296
1751
root -0.019915 17.4506 10.1329 14.1655 2.6437 -7.2837
lowerback -7.42257 1.01473 5.68674
upperback -13.1241 1.37706 0.796446
thorax -9.76907 0.197817 -2.32635
lowerneck -6.34041 -3.7197 1.06857
upperneck 13.2124 -5.35805 1.29125
head 5.0203 -2.49731 -0.105837
rclavicle -1.23246e-014 1.27222e-014
rhumerus -60.9479 -30.2704 -51.9843
rradius 24.3995
rwrist 32.0577
rhand 11.4739 322.133
rfingers 7.12502
rthumb 36.5229 -424.054
lclavicle -1.23246e-014 1.27222e-014
lhumerus -51.8508 12.1716 74.1946
lradius 18.5017
lwrist -32.0703
lhand -14.8858 -11.0722
lfingers 7.12502
lthumb 11.2749 18.6048
rfemur -0.73467 26.3497 25.4492
rtibia 0.1166
rfoot -17.5813 -32.1665
rtoes 8.14005
lfemur 9.70965 -56.2179 -17.2076
ltibia -4.90349
lfoot -36.8725 60.9837
ltoes 16.4207
1752
root -0.0181124 17.4484 10.1412 14.1518 2.63311 -7.23931
lowerback -7.53198 1.03955 5.69675
upperback -13.1423 1.40202 0.77995
thorax -9.72438 0.209366 -2.348
lowerneck -6.45884 -3.59483 1.30445
upperneck 13.545 -5.18687 1.00287
head 5.12882 -2.41486 -0.228795
rclavicle 3.67752e-015 -2.0276e-014
rhumerus -60.9004 -30.3128 -52.305
rradius 24.5075
rwrist 31.8985
rhand 11.3858 321.966
rfingers 7.12502
rthumb 36.4395 -424.241
lclavicle 3.67752e-015 -2.0276e-014
lhumerus -51.8172 12.6104 73.5564
lradius 18.035
lwrist -33.4516
lhand -14.7812 -10.9946
lfingers 7.12502
lthumb 11.3758 18.6768
rfemur -0.692107 26.2947 25.4112
rtibia 0.129477
rfoot -17.5234 -32.1377
rtoes 8.01842
lfemur 9.67693 -55.9601 -17.2255
ltibia -4.92299
lfoot -36.4227 60.8303
ltoes 16.2368
1753
root -0.0181438 17.4474 10.1508 14.0959 2.59945 -7.1867
lowerback -7.61715 1.05612 5.65924
upperback -13.142 1.41736 0.764514
thorax -9.6728 0.221158 -2.34238
lowerneck -6.8008 -3.46895 1.46391
upperneck 14.2224 -5.04619 0.909904
head 5.39104 -2.33197 -0.290153
rclavicle 1.98785e-016 5.96354e-015
rhumerus -60.7388 -30.315 -52.7122
rradius 24.5348
rwrist 31.7356
rhand 11.4283 322.098
rfingers 7.12502
rthumb 36.4798 -424.099
lclavicle 1.98785e-016 5.96354e-015
lhumerus -51.7986 13.4148 72.5689
lradius 17.5337
lwrist -34.9246
lhand -14.6919 -11.0334
lfingers 7.12502
lthumb 11.4619 18.6332
rfemur -0.567457 26.4285 25.414
rtibia 0.132592
rfoot -17.59 -32.2474
rtoes 8.14881
lfemur 9.79455 -55.7905 -17.3771
ltibia -4.93537
lfoot -36.4176 60.6516
ltoes 16.4398
1754
root -0.0165758 17.4466 10.1609 14.0568 2.55629 -7.11585
lowerback -7.70974 1.06062 5.60767
upperback -13.1451 1.4158 0.743554
thorax -9.6221 0.225359 -2.33464
lowerneck -6.98536 -3.45326 1.42155
upperneck 14.5176 -5.03857 0.957842
head 5.51697 -2.32162 -0.275502
rclavicle -1.90833e-014 1.43125e-014
rhumerus -60.4889 -30.2229 -53.2656
rradius 24.6105
rwrist 31.5321
rhand 11.6063 322.187
rfingers 7.12502
rthumb 36.6483 -423.968
lclavicle -1.90833e-014 1.43125e-014
lhumerus -51.8516 14.3271 71.4992
lradius 17.1512
lwrist -36.1973
lhand -14.7579 -10.9928
lfingers 7.12502
lthumb 11.3982 18.6774
rfemur -0.448589 26.5857 25.3842
rtibia 0.124995
rfoot -17.7099 -32.3466
rtoes 8.41663
lfemur 9.96591 -55.7765 -17.6239
ltibia -4.92786
lfoot -36.6617 60.6182
ltoes 16.726
